<?xml version="1.0" encoding="utf-8"?>
<!-- Generator: Adobe Illustrator 21.0.0, SVG Export Plug-In . SVG Version: 6.00 Build 0)  -->
<svg version="1.1" id="Layer_1" xmlns="http://www.w3.org/2000/svg" xmlns:xlink="http://www.w3.org/1999/xlink" x="0px" y="0px"
	 viewBox="0 0 640.5 642" style="enable-background:new 0 0 640.5 642;" xml:space="preserve">
<style type="text/css">
	.st0{fill:#0063AD;}
	.st1{fill:#F61732;}
	.st2{fill:#F49915;}
	.st3{fill:#039380;}
	.st4{fill:#323332;}
</style>
<g>
	
		<animateTransform  accumulate="none" additive="replace" attributeName="transform" attributeType="XML" calcMode="linear" dur="3s" fill="remove" from="0 320 321" repeatCount="indefinite" restart="always" to="360 320 321" type="rotate">
		</animateTransform>
	<path class="st0" d="M315.1,638.7C155.1,632.5,40.7,523,10.2,388.9C-0.3,342.7,0,296.4,9.9,250.2c0.9-4.1,1.5-8,6.2-9.5
		c14-0.5,26.8,4.2,40,8c4.8,2.5,9.2,5.9,15.1,5.3c2,0.1,4,0.4,5.9,1c4.5,2.1,9.1,3.3,14.1,3.3c2.5,0.3,4.7,1.2,6.9,2.3
		c3,1.8,6.4,1.5,9.7,1.8c1.5,0.1,2.9,0.5,4.3,1c4.3,2.8,9.3,3.4,13.9,5.3c20,5.3,20.2,6.7,18,27.2c-6.1,56.5,8.7,106.1,48.1,148.2
		c30,32,67.1,48.1,109.6,53.9c6.1,0.8,13.2,0,17.2,6.7c1.2,3.6,1.2,7.3,1.2,11c0.1,36.4,0.1,72.8-0.1,109.1
		C320,629.7,321.6,635.7,315.1,638.7z"/>
	<path class="st1" d="M427.4,22.1c14.8,0.8,26.9,8.7,39.2,15.4c106.6,57.8,163.5,147.8,172.2,268.4c3.8,53-9.4,103.1-30.4,151.4
		c-1.4,3.2-3.5,5.8-7.1,6.7c-1.5,1.1-3.2,1.2-4.7,0.3c-35.6-19.8-72.9-36.5-108.3-56.7c-5.8-5.6-5-11.7-2.1-18.6
		c31.5-75.7,7.6-172.2-68.8-220.6c-7.7-4.9-16-8.8-24.3-12.6c-4.9-2.3-10-4.5-11.4-10.6c-0.4-2.2-0.3-4.3,0-6.5
		c12.7-36.2,24.8-72.6,38-108.5C421.1,26.4,421.9,22,427.4,22.1z"/>
	<path class="st2" d="M427.4,22.1c-7.1,7-7.9,16.8-11.1,25.5c-11.2,30.3-21.7,60.8-32.5,91.3c-3,2.3-1.1,7-4.5,9
		c-5.8,2.6-11.3,0.1-16.8-1.2c-65.7-14.9-122.3,2.6-170.5,48.6c-16.6,15.9-27.4,35.9-36.4,56.9c-0.5,1.2,0.1-0.3-0.4,0.9
		c-8.1,19.3-8.1,19.3-28.6,16.8c-4.4-3-9.7-3.1-14.5-4.8c-1.4-0.3-2.7-0.5-4.1-0.8c-3.5-1.9-7.3-1.7-11-2.1
		c-2.2-0.8-4.5-1.5-6.7-2.3c-4.5-2.1-9.1-3.5-14.1-3.7c-1.9-0.4-3.9-0.8-5.8-1.1c-4.6-1-8.9-3.5-13.7-3.7
		c-13.6-3.6-27.1-7.2-40.7-10.8c-1.9-6.8-0.5-13.3,2-19.8C63.8,98.3,150.8,25.7,280.3,5.2c45.9-7.3,91-1.3,135.4,11.2
		C419.8,17.5,423.5,20.2,427.4,22.1z"/>
	<path class="st3" d="M489.4,406.6c23.2,9.3,43.9,23.2,66.3,34.1c15.4,7.4,31.3,13.9,45.6,23.3c2.8,6.1,2,11.8-1.9,17.2
		c-26.4,36.1-53.2,71.8-90.3,98.1c-49.2,34.9-103.7,54.6-164.1,57.4c-10,0.5-19.6,6-29.9,2.1c3.1-3.5,1.8-7.7,1.8-11.7
		c0.1-41.5,0.1-83.1,0.1-124.6c3.6-4.4,8.9-4.2,13.9-4.8c35.3-4.1,69-13,97.4-35.7c16.9-13.5,31.8-29,43.2-47.8
		C475.4,407.6,480.3,401.7,489.4,406.6z"/>
</g>
<path class="st4" d="M338.1,433.4c-17.7-4.7-33.8-5.7-50-6.7c-7.6-0.5-18.3,2-18.5-10.2c-0.2-11.8,10.5-10.6,18.1-11.4
	c16.8-1.7,33.7-3.3,50.2-6.9c15.2-3.3,18.6-7.5,18.6-22.7c-0.1-17.2,6.4-32.2,14.4-46.9c8.7-16,18.7-31.3,21.7-49.9
	c6.3-38.4-20.4-77.3-58.4-85c-40.4-8.1-78.5,15.3-88.3,54.3c-4.9,19.5-3.2,38.2,6.4,56.1c7.3,13.7,14.5,27.5,21.5,41.3
	c5.3,10.5,7.1,21.7,6.3,33.5c-0.5,7-4.4,10.6-11.2,10.2c-6.8-0.4-7.5-5.2-7.3-11c0.5-16.2-5.8-30.3-13.8-43.9
	c-10.1-17.2-20.2-34.2-23-54.6c-8.1-60.2,40.9-112.4,101.3-107.3c64.5,5.4,103.6,70.6,79.1,131.8c-5.4,13.6-13.8,25.6-20.2,38.5
	c-5.8,11.7-9.4,23.8-9.2,37c0.3,17.5-8.1,29.5-24.3,35.6c1.7,4.9,5.8,5.7,8.7,7.8c11.6,8.4,12.2,16.2,0.8,25
	c-5.8,4.5-6.1,7.5-0.8,12.1c2.6,2.2,4.7,4.9,6.9,7.4c3.9,4.6,1.3,7.9-2,11.3c-3.4,3.4-6,3.7-10.4,0.7c-12.6-8.6-24.9-17-42.2-14.8
	c-11.1,1.4-22.8-1.8-34.4-1.3c-6.1,0.3-8.1-4.3-8.7-9.3c-0.6-6.1,3-9.8,8.7-10.4c12.1-1.2,24.3-1.8,36.4-2.6
	C322.3,440.9,329.7,439,338.1,433.4z"/>
</svg>
